name ./resultDataOpenSim/trcMotMarkerGrf/sub06/grf-14-01.mot
datacolumns 19
datarows 10
range 1.09200000 1.12800000
endheader

                time	     ground_force_vx	     ground_force_vy	     ground_force_vz	     ground_force_px	     ground_force_py	     ground_force_pz	   l_ground_force_vx	   l_ground_force_vy	   l_ground_force_vz	   l_ground_force_px	   l_ground_force_py	   l_ground_force_pz	     ground_torque_x	     ground_torque_y	     ground_torque_z	   l_ground_torque_x	   l_ground_torque_y	   l_ground_torque_z	
          1.09200000	       -361.82940326	        982.80825299	         27.04030480	          0.85451240	          0.00000000	          0.02067674	         28.21148169	         67.38356989	          0.40694776	          0.12335265	         -0.07499700	         -0.04012781	          0.00000000	         -0.71757386	          0.00000000	          0.00000000	         -0.40536990	          0.00000000	
          1.09600000	       -365.41741536	        995.32716217	         27.49601712	          0.85688070	          0.00000000	          0.02042941	         21.70860654	         51.06713194	          1.71749631	          0.12303504	         -0.07499706	         -0.04008452	          0.00000000	         -1.04386812	          0.00000000	          0.00000000	         -0.30246579	          0.00000000	
          1.10000000	       -364.37181758	       1014.47077523	         27.15344354	          0.85860867	          0.00000000	          0.02020585	         15.44873968	         36.61373146	          3.06647687	          0.12074615	         -0.07499850	         -0.04085974	          0.00000000	         -1.16541925	          0.00000000	          0.00000000	         -0.21628961	          0.00000000	
          1.10400000	       -359.60841697	       1037.11681161	         25.44533427	          0.85935888	          0.00000000	          0.02010866	          9.23554236	         23.53425867	          4.34458900	          0.11574609	         -0.07499898	         -0.04297907	          0.00000000	         -1.11149869	          0.00000000	          0.00000000	         -0.14474776	          0.00000000	
          1.10800000	       -352.25983885	       1060.87117458	         22.49925309	          0.85909706	          0.00000000	          0.02011372	          3.12991955	         11.53264019	          5.50995752	          0.10794611	         -0.07499808	         -0.04623418	          0.00000000	         -0.92472654	          0.00000000	          0.00000000	         -0.08432937	          0.00000000	
          1.11200000	       -344.05342764	       1083.81204023	         19.00282719	          0.85839262	          0.00000000	          0.02014593	          0.00000000	          0.00000000	          0.00000000	          0.00000000	          0.00000000	          0.00000000	          0.00000000	         -0.64592333	          0.00000000	          0.00000000	          0.00000000	          0.00000000	
          1.11600000	       -336.45962764	       1103.82021419	         15.59585699	          0.85789344	          0.00000000	          0.02020024	          0.00000000	          0.00000000	          0.00000000	          0.00000000	          0.00000000	          0.00000000	          0.00000000	         -0.31080104	          0.00000000	          0.00000000	          0.00000000	          0.00000000	
          1.12000000	       -329.73227019	       1118.78113785	         12.59956697	          0.85767474	          0.00000000	          0.02032374	          0.00000000	          0.00000000	          0.00000000	          0.00000000	          0.00000000	          0.00000000	          0.00000000	          0.04443678	          0.00000000	          0.00000000	          0.00000000	          0.00000000	
          1.12400000	       -323.21406174	       1127.54614184	         10.08271606	          0.85749542	          0.00000000	          0.02056325	          0.00000000	          0.00000000	          0.00000000	          0.00000000	          0.00000000	          0.00000000	          0.00000000	          0.37910194	          0.00000000	          0.00000000	          0.00000000	          0.00000000	
          1.12800000	       -316.33672259	       1130.61006573	          7.94651300	          0.85733364	          0.00000000	          0.02094575	          0.00000000	          0.00000000	          0.00000000	          0.00000000	          0.00000000	          0.00000000	          0.00000000	          0.65405083	          0.00000000	          0.00000000	          0.00000000	          0.00000000	
